<svg id="svg" xmlns="http://www.w3.org/2000/svg" xmlns:xlink="http://www.w3.org/1999/xlink" width="400" height="400" viewBox="0, 0, 400,400" version="1.1"><g id="svgg"><path id="path0" d="M194.293 160.938 C 179.230 201.328,160.314 251.953,152.257 273.438 L 137.607 312.500 154.741 312.426 C 171.181 312.355,173.457 308.091,210.938 207.126 C 255.071 88.241,255.225 87.500,235.839 87.500 C 223.483 87.500,218.191 96.854,194.293 160.938 M57.813 144.708 C -26.495 190.490,-26.285 208.381,59.108 255.136 C 129.818 293.853,125.000 293.308,125.000 262.590 C 125.000 238.320,123.996 237.169,85.938 217.805 L 46.875 197.931 85.938 180.195 C 124.380 162.740,125.000 162.062,125.000 137.479 C 125.000 106.882,128.076 106.551,57.813 144.708 M275.000 136.351 C 275.000 159.344,276.349 160.846,312.500 178.125 C 333.125 187.983,350.000 197.680,350.000 199.673 C 350.000 201.667,333.125 210.757,312.500 219.872 C 275.493 236.228,275.000 236.782,275.000 261.973 C 275.000 293.392,270.093 293.902,340.892 255.136 C 426.331 208.356,426.331 191.644,340.892 144.864 C 270.344 106.236,275.000 106.837,275.000 136.351 " stroke="none" fill="#000000" fill-rule="evenodd"></path></g></svg>