<svg id="SvgjsSvg1001" width="288" height="288" xmlns="http://www.w3.org/2000/svg" version="1.1" xmlns:xlink="http://www.w3.org/1999/xlink" xmlns:svgjs="http://svgjs.com/svgjs"><defs id="SvgjsDefs1002"></defs><g id="SvgjsG1008" transform="matrix(1,0,0,1,0,0)"><svg xmlns="http://www.w3.org/2000/svg" enable-background="new 0 0 485 485" viewBox="0 0 485 485" width="288" height="288"><path d="M413.974,71.026C368.171,25.225,307.274,0,242.5,0S116.829,25.225,71.026,71.026C25.225,116.829,0,177.726,0,242.5
		s25.225,125.671,71.026,171.474C116.829,459.775,177.726,485,242.5,485s125.671-25.225,171.474-71.026
		C459.775,368.171,485,307.274,485,242.5S459.775,116.829,413.974,71.026z M242.5,455C125.327,455,30,359.673,30,242.5
		S125.327,30,242.5,30S455,125.327,455,242.5S359.673,455,242.5,455z" fill="#66ccff" class="color000 svgShape"></path><path d="M318.514 231.486c19.299 0 35-15.701 35-35s-15.701-35-35-35-35 15.701-35 35S299.215 231.486 318.514 231.486zM166.486 231.486c19.299 0 35-15.701 35-35s-15.701-35-35-35-35 15.701-35 35S147.188 231.486 166.486 231.486zM242.5 355c-46.911 0-89.35-29.619-105.604-73.703l-28.148 10.378C129.329 347.496 183.08 385 242.5 385s113.171-37.504 133.752-93.325l-28.148-10.378C331.85 325.381 289.411 355 242.5 355z" fill="#66ccff" class="color000 svgShape"></path></svg></g></svg>